<?xml version="1.0" standalone="no"?>
<!DOCTYPE svg PUBLIC "-//W3C//DTD SVG 20010904//EN"
 "http://www.w3.org/TR/2001/REC-SVG-20010904/DTD/svg10.dtd">
<svg version="1.0" xmlns="http://www.w3.org/2000/svg"
 width="500.000000pt" height="500.000000pt" viewBox="0 0 500.000000 500.000000"
 preserveAspectRatio="xMidYMid meet">
<g transform="translate(0.000000,500.000000) scale(0.100000,-0.100000)"
fill="#000000" stroke="none">
<path d="M2365 3661 c-55 -4 -109 -12 -121 -18 -28 -16 -51 -53 -55 -89 -6
-55 -1 -57 165 -49 83 4 179 10 214 14 l62 7 0 -115 c0 -64 -3 -180 -7 -258
-6 -135 -7 -142 -29 -152 -59 -26 -179 -161 -270 -301 -74 -115 -71 -197 9
-246 28 -16 58 -20 229 -24 l196 -5 -5 296 c-4 206 -3 310 5 341 7 25 14 146
18 270 5 195 3 231 -11 276 -18 54 -44 69 -63 37 -10 -19 -42 -10 -42 11 0 15
-96 17 -295 5z m282 -41 c10 -11 22 -20 28 -20 5 0 3 5 -5 10 -9 6 -10 10 -3
10 6 0 15 -5 18 -11 5 -6 12 -4 20 8 11 15 16 16 27 5 11 -11 10 -12 -7 -6
-20 7 -20 7 -2 -14 11 -12 16 -26 11 -33 -4 -8 -3 -10 4 -5 8 5 12 -6 13 -36
2 -63 0 -129 -4 -160 -3 -16 0 -28 7 -28 8 0 8 -2 0 -8 -12 -7 -10 -64 2 -84
4 -6 2 -8 -3 -5 -7 4 -10 -17 -8 -61 1 -37 -3 -73 -9 -81 -8 -11 -8 -13 1 -7
9 5 11 2 7 -8 -3 -9 -10 -14 -14 -11 -4 2 -6 -16 -4 -41 3 -51 -8 -61 -48 -45
l-26 10 0 261 c0 319 2 313 -122 284 -14 -4 -92 -8 -174 -9 -110 -3 -146 -1
-137 8 15 15 14 30 -1 21 -7 -4 -5 2 5 13 9 11 15 23 12 26 -3 4 -2 5 1 2 4
-2 16 1 28 8 18 10 105 16 324 25 31 2 47 -3 59 -18z m18 -640 c8 0 27 -7 41
-17 19 -12 22 -18 12 -24 -7 -5 -8 -9 -3 -9 8 0 14 -384 7 -462 -2 -16 -17
-17 -169 -12 -93 2 -172 5 -178 5 -5 1 -14 1 -18 0 -5 -1 -6 3 -3 8 4 5 -2 12
-12 15 -26 8 -50 56 -47 93 1 18 14 50 29 73 14 22 24 40 20 40 -3 0 9 17 27
38 18 20 37 36 42 34 5 -1 5 2 2 8 -4 6 6 23 22 37 15 15 28 29 28 32 0 3 4 5
8 3 5 -1 6 2 3 7 -8 12 88 111 106 111 9 0 9 -3 -2 -11 -13 -9 -13 -10 0 -6 8
2 15 10 15 18 0 8 8 13 18 13 15 -2 16 1 5 14 -11 13 -10 14 9 4 12 -7 29 -12
38 -12z"/>
<path d="M2440 2796 c0 -2 7 -9 15 -16 13 -11 14 -10 9 4 -5 14 -24 23 -24 12z"/>
<path d="M2359 2703 c-13 -16 -12 -17 4 -4 16 13 21 21 13 21 -2 0 -10 -8 -17
-17z"/>
<path d="M2305 2559 c-4 -6 -5 -12 -2 -15 2 -3 7 2 10 11 7 17 1 20 -8 4z"/>
<path d="M2385 2501 c-3 -5 -2 -12 3 -15 5 -3 9 1 9 9 0 17 -3 19 -12 6z"/>
<path d="M585 3624 c-4 -16 -11 -40 -16 -54 -18 -50 -29 -120 -44 -281 -18
-180 -13 -309 11 -309 7 0 18 -9 24 -20 6 -11 17 -20 25 -20 8 0 19 9 25 20 6
11 17 20 25 20 8 0 15 5 15 11 0 6 6 9 14 6 27 -10 33 17 40 168 13 283 17
339 21 343 2 3 102 8 222 13 155 7 227 14 250 24 17 8 40 15 52 15 29 0 26 14
-8 52 l-29 33 -259 -1 c-167 0 -272 -5 -298 -12 -34 -10 -42 -10 -52 4 -10 14
-13 13 -18 -12z m618 -20 c-4 -10 0 -12 11 -8 10 4 16 1 16 -7 0 -7 -3 -10 -6
-6 -4 3 -23 0 -42 -9 -25 -10 -86 -16 -198 -19 -90 -2 -178 -7 -196 -11 -18
-4 -41 -7 -52 -8 -10 0 -25 -11 -34 -24 -16 -24 -19 -75 -22 -344 -1 -66 -5
-88 -16 -92 -11 -4 -12 -10 -5 -24 9 -17 4 -23 -34 -42 -24 -12 -50 -20 -58
-17 -16 6 -30 69 -30 132 1 63 43 397 53 416 5 9 6 20 2 24 -4 5 -1 5 7 0 11
-6 13 -3 9 13 -4 13 -2 20 3 16 6 -3 16 0 24 6 8 6 18 10 22 7 4 -3 37 -1 73
3 36 4 158 7 272 7 173 1 206 -1 201 -13z"/>
<path d="M2163 3625 c0 -8 4 -12 9 -9 5 3 6 10 3 15 -9 13 -12 11 -12 -6z"/>
<path d="M1855 3434 c-111 -15 -263 -51 -355 -85 -79 -28 -72 -34 11 -9 35 11
70 18 77 15 8 -3 10 0 6 6 -4 8 1 9 15 4 13 -4 21 -2 21 5 0 7 8 9 20 5 11 -3
20 -2 20 3 0 5 11 7 25 4 14 -2 25 0 25 5 0 8 37 14 107 17 11 1 19 4 16 9 -2
4 13 7 34 8 53 0 196 8 268 14 41 3 55 2 45 -5 -11 -7 -4 -8 23 -5 20 3 53 7
72 9 20 3 35 0 35 -6 0 -6 18 -9 44 -7 24 2 42 1 40 -2 -2 -3 16 -6 39 -7 23
0 62 -8 86 -16 48 -18 81 -21 81 -7 0 12 -71 29 -193 46 -128 18 -426 18 -562
-1z"/>
<path d="M1530 3324 c-52 -8 -114 -20 -137 -28 -111 -38 -282 -182 -420 -354
-104 -129 -217 -292 -237 -342 -23 -57 -6 -84 61 -98 100 -22 348 -34 535 -28
228 8 285 17 364 56 69 34 98 63 265 271 64 79 166 197 227 261 61 64 113 127
117 139 10 31 -24 71 -77 91 -123 46 -488 63 -698 32z m425 -15 c-16 -5 -104
-8 -195 -6 -204 3 -154 14 65 15 111 0 151 -3 130 -9z m165 -21 c0 -5 5 -6 11
-3 14 9 99 -15 99 -27 0 -5 4 -7 8 -4 5 3 19 -4 31 -15 20 -19 21 -23 7 -42
-8 -12 -20 -21 -26 -19 -6 1 -9 -2 -6 -7 4 -5 2 -12 -4 -16 -6 -4 -8 -10 -5
-14 2 -5 -7 -13 -20 -19 -14 -7 -25 -16 -25 -22 0 -6 -4 -8 -10 -5 -5 3 -10
-1 -10 -9 0 -9 -5 -15 -12 -13 -7 1 -12 -3 -13 -9 0 -6 -15 -25 -33 -43 -17
-18 -30 -37 -27 -42 4 -5 -1 -6 -10 -3 -9 4 -15 2 -13 -2 3 -10 -8 -25 -52
-72 -14 -14 -24 -30 -22 -34 1 -4 -5 -8 -14 -8 -8 0 -13 -4 -10 -8 3 -5 -17
-33 -44 -63 -26 -29 -46 -57 -44 -60 2 -4 -3 -12 -10 -18 -39 -32 5 45 57 100
9 11 17 22 17 27 1 7 59 76 134 157 21 24 38 47 38 51 -1 5 9 19 20 32 12 12
17 22 10 22 -6 0 -14 9 -17 20 -3 11 -13 20 -20 20 -23 0 -25 16 -5 38 11 12
20 34 20 49 0 26 -2 25 -19 -13 -10 -23 -26 -44 -36 -47 -21 -9 -612 -9 -643
-1 -40 11 -41 83 -1 104 11 7 149 13 337 17 287 6 319 5 334 -10 21 -21 29
-22 22 -2 -4 8 -12 15 -19 15 -8 0 -16 4 -19 9 -3 4 6 6 19 3 14 -2 25 -9 25
-14z m-726 -20 c-12 -19 -22 -88 -13 -88 5 0 9 -5 9 -11 0 -6 -7 -9 -15 -5 -8
3 -15 2 -15 -2 0 -4 -29 -7 -65 -7 -36 0 -65 3 -65 6 0 10 59 59 70 59 5 0 29
13 52 30 48 33 52 35 42 18z m713 -155 c16 -21 10 -31 -90 -156 -45 -56 -120
-153 -167 -216 -59 -79 -94 -118 -117 -127 -21 -9 -73 -14 -146 -14 l-114 0
-7 61 c-12 120 -7 181 19 237 16 34 20 52 12 52 -7 0 -23 -27 -36 -60 -22 -54
-23 -70 -19 -176 l5 -116 -51 6 c-28 3 -133 7 -233 8 -101 0 -183 4 -183 7 0
6 90 74 223 167 42 31 77 60 77 66 0 7 -4 7 -12 1 -7 -5 -69 -49 -138 -98 -69
-48 -137 -100 -153 -114 -21 -20 -36 -24 -70 -23 -61 4 -72 9 -86 40 -7 15 -9
24 -5 20 4 -4 27 25 52 65 25 39 48 74 51 77 4 3 42 49 84 103 43 53 83 95 88
92 5 -4 -5 -21 -21 -38 -27 -29 -37 -47 -26 -47 7 0 116 137 116 146 0 5 -12
-8 -27 -29 -18 -25 -30 -34 -37 -27 -7 7 -1 19 17 38 15 16 25 31 22 35 -3 4
-2 5 2 2 3 -3 17 2 31 11 17 11 22 12 17 3 -5 -9 -1 -8 11 2 10 9 26 19 34 22
8 4 206 4 440 0 365 -4 427 -7 437 -20z m-1305 -470 c1 -4 8 -14 17 -21 12
-10 13 -12 1 -6 -9 4 -12 3 -7 -2 5 -5 45 -10 90 -10 45 -1 138 -6 207 -12 69
-6 206 -10 305 -11 108 0 181 -4 183 -10 2 -6 14 -6 33 1 16 5 36 7 44 4 8 -3
15 -1 15 3 0 5 8 8 18 6 9 -1 26 2 37 7 11 5 7 -1 -10 -15 -16 -14 -36 -22
-44 -19 -10 4 -12 1 -6 -8 5 -8 4 -11 -3 -6 -6 3 -13 2 -16 -3 -29 -47 -757
-53 -892 -8 -14 5 -21 16 -21 32 0 14 4 22 10 18 6 -3 7 -1 3 5 -4 6 0 25 9
43 15 28 26 33 27 12z"/>
<path d="M2263 3223 c4 -3 1 -13 -6 -22 -11 -14 -10 -14 5 -2 16 12 16 31 1
31 -4 0 -3 -3 0 -7z"/>
<path d="M2189 3148 c-5 -18 -6 -38 -1 -34 7 8 12 36 6 36 -2 0 -4 -1 -5 -2z"/>
<path d="M1265 3191 c-3 -5 -2 -12 3 -15 5 -3 9 1 9 9 0 17 -3 19 -12 6z"/>
<path d="M1065 2865 l-140 -134 58 -1 c31 0 57 3 57 8 0 4 -18 6 -40 4 -26 -3
-40 0 -40 8 0 6 5 8 12 4 7 -5 8 -3 4 5 -6 8 -2 11 10 9 14 -2 18 2 16 16 -3
14 1 17 13 12 9 -3 13 -2 10 4 -3 5 2 15 10 22 32 26 111 98 140 128 21 20 41
30 65 32 66 3 575 -14 638 -21 35 -4 65 -4 68 1 3 4 -15 9 -40 9 -25 1 -49 2
-53 3 -9 3 -275 14 -498 21 l-150 5 -140 -135z"/>
<path d="M1965 2959 c-11 -16 -1 -19 13 -3 7 8 8 14 3 14 -5 0 -13 -5 -16 -11z"/>
<path d="M1020 2918 c0 -8 -23 -40 -51 -71 -28 -32 -49 -60 -47 -62 2 -3 30
26 61 65 32 38 53 71 47 75 -5 3 -10 0 -10 -7z"/>
<path d="M1925 2909 c-4 -6 -5 -12 -2 -15 2 -3 7 2 10 11 7 17 1 20 -8 4z"/>
<path d="M1050 2745 c0 -8 4 -15 10 -15 5 0 7 7 4 15 -4 8 -8 15 -10 15 -2 0
-4 -7 -4 -15z"/>
<path d="M1142 2705 c-32 -24 -65 -51 -72 -60 -21 -26 4 -17 40 15 19 16 49
41 65 55 32 27 45 31 45 15 0 -6 42 -10 107 -10 58 0 103 3 100 7 -4 3 -50 6
-102 5 -52 -1 -97 3 -100 8 -10 16 -20 12 -83 -35z"/>
<path d="M1509 2718 c11 -4 75 -7 143 -8 169 -1 166 -2 148 10 -9 6 -17 5 -22
-3 -4 -7 -8 -7 -8 -2 0 6 -54 10 -140 10 -77 0 -131 -3 -121 -7z"/>
<path d="M2790 3331 c0 -13 47 -41 68 -41 10 0 22 -4 28 -10 5 -5 26 -11 46
-12 20 -2 34 -6 31 -10 -2 -5 -1 -8 4 -9 36 -3 60 -12 71 -26 7 -10 12 -12 12
-5 0 9 8 8 30 -3 16 -8 37 -15 47 -15 10 0 36 -9 57 -20 22 -10 42 -17 47 -15
4 3 15 2 24 -1 12 -5 13 -9 4 -14 -13 -9 -59 3 -102 27 -15 8 -35 12 -43 9 -8
-3 -22 -2 -32 3 -41 22 -92 41 -154 57 -37 10 -65 20 -63 24 2 3 -14 6 -36 6
-22 1 -36 -2 -32 -7 4 -4 94 -34 198 -67 476 -151 697 -222 1060 -343 215 -72
397 -133 405 -136 8 -3 4 6 -10 20 -28 28 -299 129 -887 331 -90 31 -236 81
-325 112 -382 131 -448 153 -448 145z m500 -192 c-12 -8 -9 -9 12 -5 15 3 30
2 33 -4 3 -5 17 -10 31 -10 13 0 24 -5 24 -11 0 -6 9 -8 23 -4 18 6 20 5 9 -6
-9 -10 -17 -11 -30 -2 -10 6 -38 14 -62 18 -25 4 -48 9 -53 12 -10 6 1 23 16
23 7 0 6 -4 -3 -11z m200 -64 c8 5 120 -41 120 -50 0 -2 -25 6 -56 20 -30 13
-58 24 -62 24 -21 -3 -32 2 -26 13 6 9 9 9 12 0 2 -7 7 -10 12 -7z m328 -112
c12 -3 25 -9 27 -14 7 -10 -48 5 -72 21 -17 11 -17 11 2 4 11 -3 30 -9 43 -11z"/>
<path d="M2296 3298 c3 -5 10 -6 15 -3 13 9 11 12 -6 12 -8 0 -12 -4 -9 -9z"/>
<path d="M2528 3303 c7 -3 16 -2 19 1 4 3 -2 6 -13 5 -11 0 -14 -3 -6 -6z"/>
<path d="M2548 3289 c-10 -5 -18 -6 -18 -2 0 4 -4 4 -8 -2 -4 -5 -30 -22 -59
-36 -29 -15 -49 -30 -45 -33 3 -4 -2 -4 -12 0 -14 5 -17 4 -12 -4 4 -7 3 -12
-1 -12 -5 0 -32 -20 -60 -45 -29 -25 -56 -47 -60 -48 -4 -1 -7 -5 -6 -9 1 -3
-13 -20 -32 -36 -18 -17 -31 -34 -27 -38 4 -4 -1 -4 -11 -1 -10 4 -16 3 -13
-2 5 -8 -11 -31 -71 -98 -12 -14 -42 -54 -65 -89 -27 -40 -48 -62 -57 -59 -11
4 -11 2 -2 -9 8 -10 9 -16 1 -21 -6 -3 -22 -30 -37 -58 -14 -29 -30 -55 -35
-58 -5 -3 -9 -9 -9 -13 0 -3 -15 -40 -34 -83 -20 -42 -38 -87 -41 -100 -4 -13
-9 -23 -13 -23 -4 0 -12 -14 -18 -30 -6 -17 -8 -28 -3 -25 11 7 88 168 96 200
3 14 9 25 14 25 4 0 15 19 26 43 25 57 124 217 134 217 5 0 12 9 15 20 4 11
25 42 47 68 159 184 287 290 405 334 32 12 62 25 68 30 13 12 -36 9 -57 -3z"/>
<path d="M2463 3175 c0 -8 4 -12 9 -9 5 3 6 10 3 15 -9 13 -12 11 -12 -6z"/>
<path d="M2792 3098 c2 -6 46 -22 98 -35 52 -13 99 -29 105 -34 5 -5 15 -27
21 -47 l12 -37 1 42 c1 34 -4 46 -21 57 -31 20 -220 67 -216 54z"/>
<path d="M2565 3060 c-3 -6 1 -7 9 -4 18 7 21 14 7 14 -6 0 -13 -4 -16 -10z"/>
<path d="M2780 2923 c0 -44 3 -174 7 -289 l6 -209 114 -3 113 -3 0 159 c0 87
-3 206 -6 264 l-7 105 -101 23 c-56 13 -107 25 -113 28 -10 3 -13 -16 -13 -75z
m104 17 c8 -9 6 -11 -10 -6 -28 9 -48 -16 -46 -58 1 -20 -4 -33 -11 -33 -15 0
-17 49 -2 59 7 5 6 8 -1 8 -9 0 -12 31 -5 48 3 8 65 -8 75 -18z m74 -11 l32
-11 0 -111 c1 -62 2 -166 3 -232 l2 -120 -90 0 -90 0 -2 170 c0 94 3 177 8
185 5 9 7 -44 6 -132 l-2 -147 32 -18 c25 -13 40 -15 69 -7 33 8 39 14 46 44
4 19 5 64 2 100 -3 36 -7 105 -7 155 l-2 89 -34 23 c-36 25 -24 30 27 12z
m-26 -30 c14 -8 17 -31 20 -171 4 -218 6 -210 -51 -206 l-46 3 -7 170 c-4 94
-5 183 -2 198 5 26 9 28 37 21 18 -3 40 -10 49 -15z"/>
<path d="M2875 2871 c-6 -11 13 -26 22 -17 4 3 1 6 -6 6 -7 0 -9 5 -6 10 3 6
4 10 1 10 -3 0 -7 -4 -11 -9z"/>
<path d="M703 2961 c0 -11 5 -18 9 -15 4 3 5 11 1 19 -7 21 -12 19 -10 -4z"/>
<path d="M2480 2971 c0 -6 4 -13 10 -16 6 -3 7 1 4 9 -7 18 -14 21 -14 7z"/>
<path d="M3040 2838 c0 -57 3 -174 7 -260 l6 -158 519 -2 520 -3 -4 143 c-1
79 -5 145 -8 147 -5 3 -432 99 -825 186 -99 22 -188 42 -197 45 -16 5 -18 -4
-18 -98z m104 51 c16 -5 39 -9 52 -9 13 0 26 -5 29 -10 6 -10 -14 -8 -69 7
-13 4 -16 1 -11 -8 6 -8 4 -11 -7 -7 -12 5 -14 -20 -14 -187 1 -150 4 -191 14
-188 6 3 12 0 12 -7 0 -7 7 -10 15 -6 8 3 15 0 16 -7 0 -9 2 -9 6 1 2 6 8 10
12 7 4 -2 52 -6 107 -7 124 -4 123 -5 118 165 -4 141 -8 168 -29 183 -22 16
-19 27 4 14 11 -5 27 -7 37 -3 11 4 15 3 11 -4 -5 -7 1 -9 15 -6 23 4 23 4 3
-12 -18 -15 -20 -26 -17 -168 1 -103 -1 -147 -8 -137 -7 11 -10 11 -10 2 0 -7
8 -16 18 -19 9 -4 30 -15 46 -24 l29 -17 -43 2 c-23 2 -46 9 -51 17 -7 12 -9
11 -9 -2 0 -11 -9 -15 -32 -13 -18 1 -33 3 -33 4 0 0 -37 3 -82 5 -46 2 -83
-1 -83 -6 0 -5 -10 -5 -22 0 -13 5 -32 5 -43 1 -44 -15 -52 -3 -48 71 1 39 6
75 9 81 4 6 2 8 -3 5 -13 -8 -24 189 -12 221 6 15 5 21 -1 17 -6 -4 -10 8 -10
30 0 33 2 35 28 29 15 -3 40 -10 56 -15z m141 -59 c55 -11 103 -24 106 -28 9
-8 16 -308 9 -316 -3 -3 -60 -2 -125 2 l-120 7 -7 50 c-9 67 -10 300 -1 308 4
4 14 5 22 2 9 -2 61 -14 116 -25z m64 14 c9 -8 -45 -2 -64 6 -14 7 -8 8 20 3
22 -3 42 -7 44 -9z m231 -72 l75 -17 3 -144 3 -143 -88 7 c-48 4 -91 10 -95
13 -5 6 -13 267 -9 295 1 10 24 8 111 -11z m45 0 c-3 -3 -11 0 -18 7 -9 10 -8
11 6 5 10 -3 15 -9 12 -12z m78 -1 c10 -1 16 -5 12 -11 -3 -5 -11 -8 -18 -6
-7 1 -9 1 -6 -1 7 -4 0 -225 -7 -232 -2 -3 -5 36 -5 85 0 121 -2 138 -17 157
-11 13 -10 15 5 12 10 -2 26 -4 36 -4z m92 -44 l60 -13 3 -127 3 -128 -63 6
c-35 4 -69 8 -75 10 -10 3 -13 39 -13 135 0 98 3 130 13 130 6 -1 39 -6 72
-13z m87 -37 c-2 -22 -5 -40 -7 -40 -2 0 -5 18 -7 40 -2 24 1 40 7 40 6 0 9
-16 7 -40z m126 -17 c8 -11 12 -52 12 -115 l0 -98 -60 0 -60 0 0 121 0 122 48
-7 c26 -3 52 -14 60 -23z m49 -15 c-3 -11 -1 -47 4 -80 7 -42 6 -64 -1 -73 -8
-9 -8 -15 0 -20 5 -3 10 -14 10 -24 0 -13 -8 -18 -27 -18 -22 0 -24 1 -12 11
9 6 15 16 13 21 -9 36 -10 104 -2 99 14 -9 -1 97 -16 115 -9 12 -7 12 12 2 17
-9 22 -19 19 -33z m-347 -203 c6 -7 2 -11 -11 -12 -13 -1 -17 2 -12 10 4 7 0
6 -10 -2 -10 -8 -17 -9 -17 -3 0 6 5 14 10 17 6 3 10 16 11 28 0 21 1 21 10
-2 5 -14 14 -30 19 -36z m183 2 c3 -7 -3 -13 -14 -14 -12 -1 -16 3 -12 13 6
18 19 18 26 1z m-318 -7 c-3 -5 -13 -10 -21 -10 -8 0 -14 5 -14 10 0 6 9 10
21 10 11 0 17 -4 14 -10z"/>
<path d="M3450 2460 c0 -5 5 -10 11 -10 5 0 7 5 4 10 -3 6 -8 10 -11 10 -2 0
-4 -4 -4 -10z"/>
<path d="M2409 2863 c-13 -16 -12 -17 4 -4 9 7 17 15 17 17 0 8 -8 3 -21 -13z"/>
<path d="M2335 2832 c3 -3 -1 -12 -8 -20 -9 -12 -6 -12 14 1 14 10 29 15 32
12 4 -3 5 -2 2 2 -3 4 -14 7 -25 8 -11 1 -18 -1 -15 -3z"/>
<path d="M4086 2744 c-4 -9 -4 -19 -1 -22 2 -3 7 2 10 10 9 22 75 0 75 -26 0
-15 -5 -17 -35 -12 l-35 7 0 -99 c0 -55 3 -119 6 -143 6 -41 8 -44 35 -43 l29
1 2 158 2 157 -40 14 c-21 8 -40 14 -40 14 -1 0 -5 -7 -8 -16z m65 -166 c0
-46 2 -91 4 -100 2 -12 -3 -18 -16 -18 -17 0 -19 8 -19 100 0 82 3 100 15 100
12 0 15 -16 16 -82z"/>
<path d="M4195 2751 c-3 -6 -1 -11 5 -11 6 0 9 -4 6 -8 -3 -5 1 -9 9 -9 12 0
12 3 3 16 -7 9 -13 17 -14 19 -1 2 -5 -1 -9 -7z"/>
<path d="M2280 2720 c-6 -11 -9 -20 -8 -20 2 0 11 9 21 20 9 11 13 20 7 20 -5
0 -14 -9 -20 -20z"/>
<path d="M4453 2697 c0 -8 6 -14 14 -14 9 0 10 4 2 14 -6 7 -12 13 -14 13 -1
0 -2 -6 -2 -13z"/>
<path d="M1906 2688 c3 -5 10 -6 15 -3 13 9 11 12 -6 12 -8 0 -12 -4 -9 -9z"/>
<path d="M4418 2693 c7 -3 16 -2 19 1 4 3 -2 6 -13 5 -11 0 -14 -3 -6 -6z"/>
<path d="M718 2641 c-20 -27 -34 -52 -30 -55 5 -6 14 4 51 67 31 51 23 46 -21
-12z"/>
<path d="M2246 2667 c3 -10 9 -15 12 -12 3 3 0 11 -7 18 -10 9 -11 8 -5 -6z"/>
<path d="M4184 2603 c3 -42 6 -101 6 -132 l0 -56 150 -2 150 -3 0 103 0 102
-148 33 c-81 18 -151 32 -156 32 -5 0 -6 -33 -2 -77z m46 48 c0 -5 17 -12 38
-16 l37 -6 3 -90 3 -89 -34 0 c-31 0 -35 4 -41 31 -3 17 -6 59 -6 93 0 35 -5
67 -12 74 -9 9 -9 12 0 12 7 0 12 -4 12 -9z m156 -118 l5 -83 -30 0 c-31 0
-31 0 -31 54 0 29 -3 68 -6 85 -7 32 -6 32 25 29 l33 -3 4 -82z m50 69 c13 -8
25 -151 13 -153 -44 -7 -44 -7 -47 79 -4 83 2 96 34 74z m-213 -142 c3 -11 1
-20 -4 -20 -5 0 -9 9 -9 20 0 11 2 20 4 20 2 0 6 -9 9 -20z"/>
<path d="M1850 2626 c0 -2 7 -7 16 -10 8 -3 12 -2 9 4 -6 10 -25 14 -25 6z"/>
<path d="M661 2558 c-34 -53 -80 -138 -75 -138 3 0 -2 -7 -10 -16 -9 -8 -16
-20 -16 -26 0 -6 9 -1 20 12 11 12 18 26 15 30 -2 4 4 15 15 25 11 10 20 23
20 30 0 6 9 21 20 32 17 19 38 73 28 73 -2 0 -10 -10 -17 -22z"/>
<path d="M1810 2566 c7 -7 13 -7 20 0 6 6 3 10 -10 10 -13 0 -16 -4 -10 -10z"/>
<path d="M653 2440 c-55 -22 -54 -92 2 -116 37 -15 103 -19 121 -6 19 12 34
50 28 67 -13 33 -113 69 -151 55z m52 -37 c5 -15 -18 -63 -31 -63 -17 0 -44
23 -44 37 0 43 60 63 75 26z m75 -23 c15 -28 -4 -60 -36 -60 -30 0 -41 23 -26
56 14 29 47 32 62 4z"/>
<path d="M814 2429 c-3 -5 6 -9 20 -9 31 0 34 6 6 13 -11 3 -23 1 -26 -4z"/>
<path d="M1366 2427 c3 -10 9 -15 12 -12 3 3 0 11 -7 18 -10 9 -11 8 -5 -6z"/>
<path d="M1299 2414 c6 -12 7 -25 3 -30 -4 -5 3 0 15 10 13 10 20 23 17 27 -6
11 -14 12 -13 2 4 -22 -3 -25 -17 -7 -15 18 -15 18 -5 -2z"/>
<path d="M898 2413 c12 -2 32 -2 45 0 12 2 2 4 -23 4 -25 0 -35 -2 -22 -4z"/>
<path d="M1005 2410 c-14 -6 8 -9 65 -9 47 -1 115 -4 153 -8 37 -3 67 -2 67 3
0 5 -35 10 -78 11 -42 1 -102 4 -132 7 -30 3 -64 1 -75 -4z"/>
<path d="M1339 2393 c-13 -16 -12 -17 4 -4 9 7 17 15 17 17 0 8 -8 3 -21 -13z"/>
<path d="M1429 2400 c-77 -13 -119 -52 -103 -94 9 -24 46 -30 151 -22 114 8
160 24 169 61 12 47 -17 65 -100 64 -39 -1 -92 -5 -117 -9z m188 -26 c12 -19
11 -24 -5 -44 -14 -17 -25 -21 -44 -17 -34 9 -42 43 -17 68 24 24 47 22 66 -7z
m-145 -1 c24 -21 23 -45 -2 -68 -17 -15 -24 -16 -45 -7 -32 15 -34 55 -3 76
28 20 27 20 50 -1z m52 6 c-11 -18 -11 -53 1 -62 6 -5 4 -7 -5 -5 -19 6 -18
78 1 78 5 0 7 -5 3 -11z m-147 -35 c-3 -4 -2 -15 4 -25 8 -15 6 -17 -8 -12
-33 12 -36 16 -18 30 19 13 33 18 22 7z"/>
<path d="M1568 2343 c7 -3 16 -2 19 1 4 3 -2 6 -13 5 -11 0 -14 -3 -6 -6z"/>
<path d="M2760 2401 c0 -3 4 -12 9 -19 6 -11 9 -9 13 5 3 12 0 20 -8 20 -8 0
-14 -3 -14 -6z"/>
<path d="M3033 2402 c-8 -5 -9 -13 -3 -22 11 -17 23 -8 18 14 -2 9 -8 12 -15
8z"/>
<path d="M4288 2383 l-98 -4 0 -26 0 -26 98 6 c53 4 121 7 150 7 49 0 52 2 52
25 0 24 -3 25 -52 23 -29 -1 -97 -4 -150 -5z m-28 -27 c0 -2 -11 -6 -25 -8
-13 -3 -22 -1 -19 3 5 9 44 13 44 5z"/>
<path d="M3640 2369 c-146 -3 -338 -7 -427 -8 l-163 -1 0 -50 c0 -50 0 -50 33
-50 47 0 872 48 945 56 61 5 62 6 62 35 l0 29 -92 -2 c-51 -1 -212 -5 -358 -9z
m367 -25 c2 -5 -5 -10 -14 -10 -141 -5 -340 -17 -345 -20 -4 -3 -61 -7 -127
-8 -66 -2 -123 -6 -128 -8 -4 -2 -45 -5 -89 -7 -45 -1 -106 -6 -135 -9 -82
-11 -99 -6 -99 28 l0 29 161 0 c89 0 164 3 167 5 2 3 13 1 23 -5 13 -6 19 -6
19 0 0 6 72 10 191 10 106 0 194 2 196 4 8 9 177 0 180 -9z m63 6 c0 -5 -6
-10 -14 -10 -8 0 -18 5 -21 10 -3 6 3 10 14 10 12 0 21 -4 21 -10z"/>
<path d="M4110 2349 c0 -28 2 -30 33 -27 27 2 33 8 35 31 3 25 1 27 -32 27
-33 0 -36 -2 -36 -31z m36 -6 c-10 -10 -19 5 -10 18 6 11 8 11 12 0 2 -7 1
-15 -2 -18z"/>
<path d="M531 2298 c-11 -34 -20 -62 -18 -64 1 -1 32 -11 69 -22 163 -50 870
-81 1103 -47 118 16 287 29 675 50 157 8 313 17 348 20 l62 6 0 -89 c0 -60 4
-94 14 -108 11 -14 12 -22 3 -34 -9 -12 -7 -12 8 1 12 10 61 21 124 29 58 8
109 20 117 27 17 18 21 188 3 178 -6 -4 -9 -38 -8 -81 1 -41 -2 -79 -7 -84
-12 -12 -212 -42 -225 -35 -5 4 -9 46 -9 94 0 67 -4 92 -15 101 -10 8 -15 30
-15 62 l0 49 -312 -6 c-551 -12 -660 -19 -768 -51 -94 -27 -97 -28 -385 -27
-455 0 -670 24 -715 78 -20 24 -27 18 -49 -47z m35 16 c-5 -14 -4 -15 9 -4 8
7 15 8 15 3 0 -13 107 -42 166 -45 29 -2 51 -5 49 -8 -2 -3 24 -6 58 -6 135
-1 473 -15 491 -20 10 -4 16 -2 13 2 -3 5 51 10 119 10 68 1 130 6 136 12 11
8 79 24 105 24 5 0 13 3 18 8 21 16 79 20 375 25 168 3 371 7 451 9 80 3 152
0 160 -5 11 -7 11 -9 1 -9 -10 0 -8 -5 4 -17 16 -17 16 -18 1 -21 -9 -2 -17
-7 -17 -10 0 -4 -33 -8 -73 -9 -141 -3 -329 -13 -338 -19 -5 -3 -60 -7 -121
-9 -205 -7 -322 -16 -433 -32 -114 -17 -559 -27 -550 -13 3 5 -12 4 -33 -1
-46 -11 -54 -11 -49 -1 3 4 -15 8 -39 8 -24 1 -42 -2 -39 -6 2 -3 -22 -3 -53
1 -31 4 -100 10 -152 13 -126 6 -210 17 -205 26 2 4 -10 7 -27 7 -44 0 -70 33
-56 73 5 17 12 30 15 30 3 0 2 -7 -1 -16z"/>
<path d="M1838 2298 c5 -5 16 -8 23 -6 8 3 3 7 -10 11 -17 4 -21 3 -13 -5z"/>
<path d="M1285 2351 c-3 -5 -2 -12 3 -15 5 -3 9 1 9 9 0 17 -3 19 -12 6z"/>
<path d="M2874 2352 l-84 -3 0 -56 0 -56 68 6 c37 4 91 7 120 7 l52 0 0 55 0
56 -36 -3 c-20 -2 -74 -4 -120 -6z m64 -27 c7 -3 10 0 7 5 -3 6 -2 10 4 10 14
0 61 -45 61 -58 0 -14 -37 -19 -77 -11 -18 4 -33 4 -33 0 0 -3 -21 -7 -46 -8
-45 -2 -45 -1 -42 30 2 22 9 34 23 38 20 5 78 2 103 -6z m72 -5 c0 -5 -7 -7
-15 -4 -8 4 -12 10 -9 15 6 11 24 2 24 -11z"/>
<path d="M1656 2323 c-6 -14 -5 -15 5 -6 7 7 10 15 7 18 -3 3 -9 -2 -12 -12z"/>
<path d="M4182 2278 c-2 -48 -2 -48 -37 -48 -33 0 -35 2 -35 35 0 19 -4 35 -9
35 -5 0 -8 -8 -6 -17 2 -10 4 -29 4 -42 1 -21 4 -23 44 -18 23 3 62 10 87 16
l45 10 -42 -2 -42 -2 -4 40 c-3 40 -4 39 -5 -7z"/>
<path d="M4479 2283 c-1 -5 -1 -11 0 -15 0 -5 -3 -8 -8 -8 -5 0 -7 -9 -4 -20
7 -27 16 -17 19 20 2 26 -4 43 -7 23z"/>
<path d="M4410 2271 c0 -4 11 -6 25 -3 14 2 25 6 25 8 0 2 -11 4 -25 4 -14 0
-25 -4 -25 -9z"/>
<path d="M4310 2260 c-34 -7 -34 -7 -5 -8 17 0 39 3 50 8 24 10 4 10 -45 0z"/>
<path d="M4429 2241 c11 -7 -3 -9 -45 -9 -32 1 -142 -13 -244 -30 -177 -30
-391 -65 -1035 -167 -159 -25 -301 -49 -314 -54 -44 -13 1 -19 51 -6 34 8 49
9 52 1 3 -7 8 -6 15 4 6 9 25 14 56 13 25 -1 43 2 40 7 -3 4 5 8 18 7 12 0 42
3 67 8 25 5 56 8 70 8 14 -1 30 3 36 8 6 5 38 10 71 11 34 2 59 6 57 9 -2 4 6
7 19 7 12 0 54 5 92 11 39 7 99 16 135 21 36 5 85 14 110 19 109 21 182 31
190 26 5 -3 11 -1 15 5 4 7 13 6 27 -1 16 -9 19 -8 13 2 -6 9 -2 11 13 7 13
-4 20 -2 16 4 -4 6 4 8 17 6 13 -2 23 -9 21 -16 -1 -8 2 -11 7 -7 6 3 7 13 4
22 -4 11 -2 14 5 9 6 -4 29 -2 51 4 22 6 71 11 109 13 39 1 68 5 65 10 -2 4 8
8 24 9 15 1 37 2 48 3 11 1 30 7 42 13 33 18 45 14 24 -7 -10 -10 -20 -23 -22
-28 -2 -5 -105 -32 -229 -61 -124 -28 -390 -90 -592 -137 -202 -47 -376 -85
-386 -85 -11 0 -25 14 -36 36 -13 29 -14 35 -3 31 8 -3 20 0 27 6 10 9 11 9 6
0 -5 -9 -2 -11 8 -7 10 4 17 -2 22 -20 3 -14 10 -26 15 -26 14 0 11 34 -5 55
-13 19 -18 18 -187 -14 -96 -18 -184 -35 -196 -38 -18 -4 -23 2 -35 44 -12 40
-18 48 -36 46 -16 -2 -22 3 -22 17 0 10 -4 21 -9 25 -18 10 -31 -33 -31 -99 0
-59 -2 -66 -20 -66 -11 0 -60 -39 -112 -89 -51 -48 -102 -93 -114 -99 -32 -17
-232 -49 -389 -63 -198 -17 -705 4 -988 42 -71 9 -143 33 -157 51 -3 4 -12 6
-20 6 -33 -2 -66 3 -80 12 -23 14 -7 20 31 10 19 -5 97 -14 174 -20 77 -6 156
-13 175 -15 19 -2 62 -4 95 -5 46 -1 55 -3 38 -10 -34 -14 -28 -20 8 -10 18 5
91 7 163 4 247 -11 375 -8 586 12 117 11 132 13 190 28 34 9 64 15 68 14 4 -1
26 8 49 20 48 25 57 27 47 10 -4 -7 -4 -10 1 -6 4 4 14 3 22 -3 11 -10 11 -15
1 -28 -12 -14 -11 -14 5 -2 17 13 17 15 -3 36 -24 25 -26 39 -4 31 9 -3 12 -2
9 5 -4 6 0 9 8 7 9 -2 15 1 14 5 -3 12 51 39 63 32 5 -3 7 1 4 9 -3 9 3 19 18
26 21 10 21 10 5 -3 -16 -14 -16 -15 0 -28 13 -11 15 -11 9 -1 -12 20 33 64
58 56 15 -4 17 -3 7 4 -11 8 -11 11 0 16 8 3 1 4 -16 1 -16 -4 -76 -37 -131
-74 -147 -99 -250 -127 -560 -151 -244 -19 -797 13 -1128 65 -50 8 -91 13 -93
12 -1 -2 12 -18 30 -35 28 -27 48 -35 121 -49 72 -14 90 -21 99 -40 12 -28 43
-39 137 -52 99 -14 322 -31 368 -30 42 2 -77 17 -178 23 -36 2 -83 8 -105 13
-22 5 -50 8 -62 7 -13 -1 -23 2 -23 6 0 4 24 6 53 4 28 -1 104 -5 167 -9 63
-3 131 -10 150 -14 19 -4 74 -7 121 -6 74 1 86 -2 82 -15 -4 -12 -3 -13 5 -1
7 10 22 12 57 8 25 -4 44 -3 42 1 -3 4 70 8 162 8 91 1 185 6 208 12 30 7 41
7 36 -1 -4 -7 0 -8 12 -3 32 12 99 25 155 30 29 3 56 10 60 17 4 6 12 9 18 5
5 -3 25 5 43 17 19 13 43 26 54 30 20 7 20 7 1 -8 -25 -19 -7 -20 19 -1 17 12
21 12 33 -3 7 -9 11 -11 8 -4 -4 6 7 26 24 43 17 18 29 38 26 46 -3 7 -1 16 5
20 7 4 6 10 -1 19 -8 9 -6 17 5 29 9 9 20 16 24 16 10 0 25 -349 16 -358 -4
-4 -86 -10 -183 -14 -97 -3 -213 -13 -257 -22 -44 -9 -81 -16 -82 -16 -9 0
-22 -43 -16 -53 12 -19 14 -45 3 -52 -23 -14 -6 -24 53 -30 113 -12 417 28
457 60 29 23 40 27 34 11 -3 -8 -1 -22 4 -32 8 -15 11 -14 30 7 12 12 32 23
44 24 l23 2 -1 252 c0 212 2 251 14 246 7 -3 15 -5 18 -5 2 0 1 -7 -2 -15 -4
-11 -2 -13 9 -9 8 3 17 14 20 25 8 30 27 22 27 -10 0 -47 -17 -80 -45 -87 -14
-3 -25 -10 -25 -15 0 -19 28 -8 65 25 32 29 41 32 57 23 10 -7 16 -18 13 -26
-4 -11 -1 -11 13 2 10 9 30 17 44 17 23 0 86 39 65 40 -5 0 -1 7 7 16 10 9 14
24 10 39 -3 12 -1 26 5 29 7 5 8 1 5 -9 -4 -11 -2 -14 9 -10 9 4 17 -2 20 -17
4 -13 18 -28 32 -35 14 -6 23 -8 20 -4 -2 4 10 9 28 10 46 3 70 7 90 16 9 4
29 4 45 1 17 -4 22 -3 14 2 -11 7 -9 10 7 15 14 3 19 1 14 -6 -4 -7 1 -6 10 2
9 7 24 11 32 7 9 -3 13 -2 10 4 -6 9 16 15 39 11 4 -1 25 4 45 10 37 13 153
39 183 42 9 1 14 6 11 11 -3 5 -1 6 5 2 6 -4 39 1 74 9 34 9 70 17 80 18 10 1
18 5 18 9 0 4 8 4 17 1 14 -6 13 -9 -10 -18 l-27 -11 28 -10 c15 -6 38 -7 52
-3 21 6 19 7 -14 8 -22 1 -37 3 -35 5 2 2 130 36 284 75 196 50 284 76 293 88
19 26 11 67 -13 71 -16 2 -17 1 -6 -7z m8 -46 c-4 -8 -11 -15 -17 -15 -14 0
-13 27 3 33 16 6 21 1 14 -18z m-41 -23 c-4 -3 -12 0 -19 7 -9 9 -9 14 3 21
11 7 16 5 18 -6 2 -9 1 -18 -2 -22z m-311 -82 c-3 -5 -12 -10 -18 -10 -7 0 -6
4 3 10 19 12 23 12 15 0z m-79 -19 c-7 -10 -96 -34 -103 -27 -3 3 8 8 23 11
16 4 40 11 54 15 14 5 26 9 28 9 2 1 1 -3 -2 -8z m-1265 -123 c6 -15 12 -59
12 -98 1 -38 5 -70 10 -70 5 0 4 -6 -2 -14 -7 -8 -9 -27 -6 -42 3 -16 5 -74 4
-129 -1 -55 -2 -112 -2 -127 0 -16 -4 -25 -10 -21 -6 4 -8 0 -4 -9 4 -12 1
-14 -15 -10 -13 3 -19 1 -15 -5 3 -5 0 -10 -8 -10 -8 0 -17 7 -19 14 -3 8 -1
11 4 8 6 -3 7 1 3 10 -3 9 -9 13 -12 8 -12 -16 -93 -55 -124 -59 -18 -3 -43
-7 -57 -11 -54 -13 -204 -30 -247 -27 -18 1 -46 2 -63 3 -25 1 -30 5 -30 27 0
14 -5 35 -11 46 -7 13 -7 18 -1 14 6 -3 17 1 25 9 18 17 31 20 21 4 -5 -8 -1
-8 13 0 11 6 23 8 25 5 3 -2 39 2 79 11 42 8 103 13 139 11 89 -6 209 9 227
27 15 15 17 47 8 147 -3 42 -4 216 -1 306 1 41 1 41 23 25 12 -9 27 -28 34
-43z m302 -30 c-10 -56 -20 -66 -70 -74 -41 -6 -49 -4 -65 16 -26 32 -23 37
27 44 24 4 54 16 67 26 35 30 49 25 41 -12z m-63 12 c-8 -5 -32 -12 -52 -15
-21 -4 -42 -14 -48 -23 -8 -15 -9 -14 -10 6 0 14 6 22 18 23 28 1 76 10 81 15
2 2 9 4 15 4 6 0 4 -5 -4 -10z m-90 -69 c0 -5 -7 -11 -14 -14 -10 -4 -13 -1
-9 9 6 15 23 19 23 5z m-305 -90 c-8 -17 -23 -31 -33 -32 -9 0 -25 -2 -34 -4
-30 -6 -28 10 7 44 22 21 39 30 47 25 9 -5 8 -1 -2 11 -9 11 -10 16 -2 11 7
-4 15 0 20 11 6 15 8 13 10 -9 2 -15 -4 -40 -13 -57z m-1825 -1 c0 -5 -5 -10
-11 -10 -5 0 -7 5 -4 10 3 6 8 10 11 10 2 0 4 -4 4 -10z m306 -119 c-3 -5 -15
-7 -26 -4 -28 7 -25 13 6 13 14 0 23 -4 20 -9z"/>
<path d="M2731 1924 c0 -11 3 -14 6 -6 3 7 2 16 -1 19 -3 4 -6 -2 -5 -13z"/>
<path d="M2546 1792 c-3 -5 1 -9 9 -9 8 0 12 4 9 9 -3 4 -7 8 -9 8 -2 0 -6 -4
-9 -8z"/>
<path d="M3975 2214 c-60 -7 -135 -17 -165 -22 -53 -9 -54 -10 -14 -11 23 0
63 3 90 8 27 5 81 12 119 16 39 4 74 11 80 16 5 5 7 9 5 8 -3 -1 -54 -7 -115
-15z"/>
<path d="M514 2120 c0 -58 1 -81 3 -52 2 28 2 76 0 105 -2 28 -3 5 -3 -53z"/>
<path d="M3585 2165 c-55 -8 -134 -18 -175 -24 l-75 -9 85 4 c93 5 356 42 300
42 -19 0 -80 -6 -135 -13z"/>
<path d="M1753 2145 c-10 -11 -10 -15 0 -19 8 -3 6 -10 -7 -20 -19 -15 -12
-22 17 -17 4 0 7 -6 7 -16 0 -9 2 -14 4 -12 3 3 2 25 -2 51 -6 37 -9 43 -19
33z"/>
<path d="M3264 2122 c5 -9 53 -8 63 1 3 4 -10 7 -31 7 -20 0 -35 -4 -32 -8z"/>
<path d="M554 2108 c-4 -7 -9 -53 -10 -103 -2 -49 -12 -175 -24 -278 -24 -228
-24 -212 -1 -234 10 -10 22 -32 25 -49 4 -17 25 -48 47 -70 l40 -39 92 1 c51
1 155 12 232 23 77 12 145 23 151 23 6 1 9 12 6 25 -4 19 1 24 28 29 24 5 36
15 46 40 8 18 14 39 14 45 0 14 -223 6 -457 -17 -61 -5 -62 -5 -69 22 -9 36 9
360 20 372 2 1 25 -2 52 -8 118 -24 541 -63 729 -67 250 -6 248 -7 253 114 6
129 29 121 -358 133 -361 11 -468 17 -695 40 -115 12 -112 12 -121 -2z m166
-18 c57 -7 108 -14 112 -16 13 -8 10 -172 -3 -176 -6 -2 -40 1 -75 6 l-65 9 0
36 c1 91 -5 124 -21 135 -13 8 -22 6 -41 -12 -27 -26 -43 -28 -51 -6 -3 8 -10
12 -16 9 -14 -9 -13 8 2 23 6 6 21 10 32 7 12 -2 68 -9 126 -15z m215 -26
c122 -3 311 -15 326 -19 13 -4 16 -21 17 -78 1 -39 3 -82 6 -94 4 -19 0 -22
-27 -21 -18 0 -36 3 -41 6 -10 6 -44 10 -121 16 -27 2 -86 7 -130 11 -44 4
-82 8 -85 7 -8 -1 -22 28 -25 54 -1 13 2 21 6 18 11 -6 11 1 0 49 -6 24 -5 37
1 37 6 0 7 7 4 16 -4 10 -2 13 7 7 6 -4 35 -8 62 -9z m-275 -19 c-7 -8 -8 -20
-4 -27 11 -18 12 -110 1 -132 -7 -13 -6 -16 3 -11 9 5 9 2 2 -11 -5 -11 -9
-40 -8 -66 1 -25 -1 -45 -4 -43 -9 6 -5 -219 4 -234 7 -10 6 -12 -4 -6 -7 5
-5 -4 6 -19 18 -25 23 -27 74 -21 126 13 179 16 247 17 40 1 71 4 68 8 -2 3
22 6 55 6 32 -1 56 2 54 6 -3 4 3 5 12 1 11 -4 13 -8 6 -11 -7 -2 -10 -7 -7
-12 2 -4 -4 -15 -15 -25 -11 -10 -20 -14 -20 -10 0 5 -11 -2 -25 -15 -14 -14
-36 -25 -48 -26 -34 -2 -58 -15 -50 -28 3 -6 -3 -2 -15 8 -12 11 -25 16 -29
12 -4 -4 -1 -11 7 -16 12 -7 11 -9 -5 -8 -11 0 -47 -3 -80 -7 -33 -4 -101 -8
-152 -8 -92 -2 -93 -1 -127 32 -18 18 -36 45 -39 61 -4 15 -13 35 -22 44 -9 9
-12 16 -7 16 5 0 7 12 5 28 -7 49 -3 124 11 232 4 25 9 87 13 138 5 74 10 95
22 99 29 9 60 26 59 32 -2 16 3 22 12 16 8 -5 7 -11 0 -20z m1038 -7 c18 -16
16 -162 -3 -181 -19 -20 -179 -32 -293 -23 -47 4 -90 10 -94 12 -8 5 -12 197
-4 205 9 9 382 -3 394 -13z m-1171 -490 c-3 -8 -6 -5 -6 6 -1 11 2 17 5 13 3
-3 4 -12 1 -19z"/>
<path d="M793 1945 c0 -8 4 -12 9 -9 5 3 6 10 3 15 -9 13 -12 11 -12 -6z"/>
<path d="M928 1393 c7 -3 16 -2 19 1 4 3 -2 6 -13 5 -11 0 -14 -3 -6 -6z"/>
<path d="M1316 2107 c3 -10 9 -15 12 -12 3 3 0 11 -7 18 -10 9 -11 8 -5 -6z"/>
<path d="M3205 2109 c18 -5 33 -5 39 1 7 7 -4 10 -29 9 -40 -1 -40 -1 -10 -10z"/>
<path d="M3075 2100 c-3 -5 3 -10 14 -10 12 0 21 5 21 10 0 6 -6 10 -14 10 -8
0 -18 -4 -21 -10z"/>
<path d="M3133 2103 c9 -2 23 -2 30 0 6 3 -1 5 -18 5 -16 0 -22 -2 -12 -5z"/>
<path d="M2735 2070 c-3 -5 -1 -10 4 -10 6 0 11 5 11 10 0 6 -2 10 -4 10 -3 0
-8 -4 -11 -10z"/>
<path d="M2565 2054 l-90 -12 84 3 c46 2 89 9 95 15 5 5 8 9 6 9 -3 -1 -45 -7
-95 -15z"/>
<path d="M1745 2051 c-3 -5 -2 -12 3 -15 5 -3 9 1 9 9 0 17 -3 19 -12 6z"/>
<path d="M1785 2040 c3 -5 11 -10 16 -10 6 0 7 5 4 10 -3 6 -11 10 -16 10 -6
0 -7 -4 -4 -10z"/>
<path d="M2275 2023 c-127 -16 -399 -22 -434 -9 -16 6 -21 5 -17 -3 4 -6 17
-11 29 -12 21 0 21 -1 2 -9 -14 -7 -5 -8 30 -5 28 2 111 7 185 10 74 3 167 10
205 16 39 5 99 14 135 18 54 7 57 9 20 9 -25 0 -94 -7 -155 -15z"/>
<path d="M3805 2010 c-3 -5 1 -10 10 -10 9 0 13 5 10 10 -3 6 -8 10 -10 10 -2
0 -7 -4 -10 -10z"/>
<path d="M3725 1993 c-11 -3 -24 -10 -30 -15 -12 -13 35 0 50 13 5 5 7 8 5 8
-3 -1 -14 -3 -25 -6z"/>
<path d="M3774 1991 c14 -5 4 -11 -40 -20 -33 -8 -70 -18 -84 -24 -30 -12
-100 -20 -83 -9 7 5 -3 8 -24 8 l-37 0 30 -13 29 -14 -33 5 c-31 5 -32 5 -17
-11 14 -13 21 -14 36 -5 10 7 29 12 42 12 12 0 48 9 80 20 31 11 65 22 74 23
10 2 31 8 48 12 26 7 27 9 10 16 -11 4 -27 8 -35 8 -10 0 -9 -3 4 -8z"/>
<path d="M3840 1996 c0 -2 7 -7 16 -10 8 -3 12 -2 9 4 -6 10 -25 14 -25 6z"/>
<path d="M2483 1925 c0 -8 4 -12 9 -9 5 3 6 10 3 15 -9 13 -12 11 -12 -6z"/>
<path d="M3470 1920 c-9 -6 -10 -10 -3 -10 6 0 15 5 18 10 8 12 4 12 -15 0z"/>
<path d="M3434 1902 c9 -15 -27 -25 -67 -18 -17 3 -27 3 -20 0 7 -3 11 -11 9
-17 -1 -7 -1 -9 1 -4 3 4 17 7 31 8 28 1 106 27 85 28 -6 1 -19 4 -29 8 -11 4
-15 3 -10 -5z"/>
<path d="M3490 1900 c0 -5 5 -10 10 -10 6 0 10 5 10 10 0 6 -4 10 -10 10 -5 0
-10 -4 -10 -10z"/>
<path d="M3238 1852 c18 -12 -30 -26 -61 -17 -17 5 -19 4 -7 -4 12 -9 11 -11
-7 -11 -12 0 -25 -5 -28 -10 -7 -12 23 -7 85 13 19 6 41 10 48 9 6 -2 12 2 12
8 0 5 -4 10 -9 10 -5 0 -18 3 -28 6 -13 4 -15 3 -5 -4z"/>
<path d="M3295 1850 c-8 -13 15 -13 35 0 12 8 11 10 -7 10 -12 0 -25 -4 -28
-10z"/>
<path d="M3030 1826 c0 -2 7 -9 15 -16 9 -7 15 -8 15 -2 0 5 -7 12 -15 16 -8
3 -15 4 -15 2z"/>
<path d="M3248 1813 c7 -3 16 -2 19 1 4 3 -2 6 -13 5 -11 0 -14 -3 -6 -6z"/>
<path d="M3075 1799 c-16 -5 -39 -6 -50 -3 -17 4 -18 3 -5 -6 12 -9 6 -10 -25
-6 -34 5 -37 4 -15 -5 27 -11 106 -4 115 12 4 5 11 7 16 4 5 -4 9 -1 9 4 0 13
-4 13 -45 0z"/>
<path d="M2068 1773 c7 -3 16 -2 19 1 4 3 -2 6 -13 5 -11 0 -14 -3 -6 -6z"/>
<path d="M2890 1749 c-36 -10 -72 -17 -81 -15 -12 2 -15 -6 -16 -38 0 -24 1
-30 4 -14 3 19 13 30 35 37 17 6 33 9 36 6 3 -3 11 0 18 6 8 6 21 9 29 5 8 -3
15 -1 15 5 0 6 7 8 16 5 8 -3 12 -2 9 3 -3 5 3 12 12 14 12 3 13 5 3 5 -8 0
-44 -9 -80 -19z"/>
<path d="M885 1681 c4 -8 2 -17 -6 -22 -9 -6 -10 -9 -2 -9 19 0 27 21 13 33
-10 9 -11 9 -5 -2z"/>
<path d="M2560 1680 c-11 -7 -5 -8 20 -5 32 5 33 5 10 -5 -13 -6 -35 -8 -48
-5 -15 4 -21 2 -17 -5 3 -5 -1 -10 -10 -10 -9 0 -13 4 -10 10 8 14 -27 0 -40
-15 -16 -19 -121 -46 -151 -39 -27 7 -27 7 -8 -13 10 -10 22 -15 25 -11 3 5
14 6 24 2 13 -5 16 -4 11 4 -4 7 -1 13 6 13 51 5 71 9 84 20 8 6 14 9 14 6 0
-4 19 0 42 9 22 8 43 12 46 9 3 -3 11 0 17 5 7 6 27 12 44 13 40 3 40 13 0 21
-40 8 -41 8 -59 -4z m-63 -36 c-3 -3 -12 -4 -19 -1 -8 3 -5 6 6 6 11 1 17 -2
13 -5z"/>
<path d="M2446 1664 c-3 -9 -13 -14 -20 -11 -8 3 -20 -1 -26 -9 -10 -11 -9
-14 3 -14 19 0 64 36 56 45 -4 3 -9 -2 -13 -11z"/>
<path d="M2650 1603 c-3 -29 -1 -48 3 -44 5 5 7 28 5 52 l-3 44 -5 -52z"/>
<path d="M2220 1593 c-14 -7 -34 -11 -44 -9 -12 3 -15 1 -9 -5 10 -10 73 -1
73 11 0 5 9 6 20 3 11 -3 20 -3 20 0 0 12 -37 12 -60 0z"/>
<path d="M1675 1591 c-6 -5 -19 -11 -30 -14 -11 -3 9 -5 45 -6 38 0 60 3 52 8
-7 4 -25 6 -39 3 -18 -3 -24 -1 -19 7 9 13 4 14 -9 2z"/>
<path d="M1275 1580 c17 -4 39 -8 50 -8 l20 -1 -20 9 c-11 5 -33 8 -50 8 l-30
0 30 -8z"/>
<path d="M1528 1583 c17 -2 47 -2 65 0 17 2 3 4 -33 4 -36 0 -50 -2 -32 -4z"/>
<path d="M1403 1573 c15 -2 37 -2 50 0 12 2 0 4 -28 4 -27 0 -38 -2 -22 -4z"/>
<path d="M2220 1569 c-14 -6 -41 -8 -60 -5 -26 4 -30 3 -15 -4 14 -6 15 -9 5
-9 -13 -1 -13 -2 0 -11 20 -13 39 -12 20 1 -11 7 -6 8 20 3 19 -3 31 -3 27 2
-4 5 9 14 30 20 21 7 29 12 18 12 -11 1 -31 -4 -45 -9z"/>
<path d="M1538 1563 c12 -2 30 -2 40 0 9 3 -1 5 -23 4 -22 0 -30 -2 -17 -4z"/>
<path d="M1818 1563 c12 -2 32 -2 45 0 12 2 2 4 -23 4 -25 0 -35 -2 -22 -4z"/>
<path d="M1611 1556 c8 -9 179 -13 179 -4 0 4 -41 8 -92 8 -50 0 -89 -2 -87
-4z"/>
<path d="M2040 1550 l85 -7 -107 1 c-59 1 -103 -3 -99 -7 11 -11 170 -15 194
-5 38 16 3 28 -76 26 l-82 -2 85 -6z"/>
<path d="M1828 1538 c23 -8 39 -8 55 0 19 9 13 11 -33 10 -53 0 -54 -1 -22
-10z"/>
<path d="M2478 1528 c5 -5 16 -8 23 -6 8 3 3 7 -10 11 -17 4 -21 3 -13 -5z"/>
<path d="M2248 1503 c7 -3 16 -2 19 1 4 3 -2 6 -13 5 -11 0 -14 -3 -6 -6z"/>
<path d="M1165 1421 c-6 -11 13 -26 22 -17 4 3 1 6 -6 6 -7 0 -9 5 -6 10 3 6
4 10 1 10 -3 0 -7 -4 -11 -9z"/>
<path d="M2081 1424 c-1 -6 5 -17 12 -23 10 -8 14 -7 14 4 0 8 -4 12 -8 9 -4
-2 -10 2 -12 8 -4 8 -6 9 -6 2z"/>
<path d="M1080 1340 c6 -11 13 -20 16 -20 2 0 0 9 -6 20 -6 11 -13 20 -16 20
-2 0 0 -9 6 -20z"/>
</g>
</svg>
